<?xml version="1.0" encoding="UTF-8"?>
<svg version="1.1" xmlns="http://www.w3.org/2000/svg" width="200" height="200">
<path d="M0 0 C1.36139053 5.1810634 0.59764648 7.7186085 -1.9375 12.375 C-2.50339844 13.43460938 -3.06929688 14.49421875 -3.65234375 15.5859375 C-4.09707031 16.38257812 -4.54179687 17.17921875 -5 18 C-4.01 17.505 -4.01 17.505 -3 17 C-0.68784489 16.90212905 1.62718158 16.86922377 3.94140625 16.8671875 C4.62428207 16.86623077 5.3071579 16.86527405 6.01072693 16.86428833 C7.45401095 16.86360777 8.89729803 16.8654534 10.34057617 16.86962891 C12.55719828 16.87498718 14.77361852 16.86967557 16.99023438 16.86328125 C18.39062545 16.86394189 19.7910164 16.86522277 21.19140625 16.8671875 C22.47217041 16.86831543 23.75293457 16.86944336 25.07250977 16.87060547 C28 17 28 17 29 18 C29.10056691 20.88606016 29.13615375 23.74822575 29.12939453 26.63476562 C29.13202301 27.99319832 29.13202301 27.99319832 29.13470459 29.3790741 C29.13912454 32.38815193 29.13618461 35.39717152 29.1328125 38.40625 C29.1334855 40.48750825 29.13445549 42.56876643 29.13571167 44.65002441 C29.13718884 49.01815538 29.13503348 53.38626593 29.13037109 57.75439453 C29.1246738 63.36714553 29.1279527 68.97984872 29.13394356 74.59259796 C29.13754866 78.89211389 29.13641082 83.19161838 29.13381577 87.49113464 C29.13314636 89.56129461 29.1339754 91.6314556 29.13629532 93.70161438 C29.13882102 96.58951586 29.13498242 99.47733878 29.12939453 102.36523438 C29.13141876 103.22968674 29.13344299 104.0941391 29.13552856 104.98478699 C29.11426237 110.88573763 29.11426237 110.88573763 28 112 C26.15469827 112.09866627 24.30557912 112.12632156 22.4576416 112.12698364 C21.25448807 112.12980347 20.05133453 112.13262329 18.8117218 112.13552856 C17.46627793 112.13358397 16.1208342 112.13153579 14.77539062 112.12939453 C13.3680161 112.13074854 11.96064193 112.13252847 10.55326843 112.13470459 C6.72072932 112.13927895 2.88821701 112.13748935 -0.94432259 112.1343255 C-4.94640299 112.13180192 -8.94848103 112.13413944 -12.95056152 112.13571167 C-19.67261163 112.13753337 -26.39465077 112.13512705 -33.11669922 112.13037109 C-40.89938724 112.12492847 -48.68204907 112.12669113 -56.46473646 112.1321975 C-63.13478301 112.13672862 -69.80482166 112.13737918 -76.47486925 112.13475883 C-80.46385662 112.13319605 -84.45283165 112.13300232 -88.44181824 112.13629532 C-92.19115112 112.13917402 -95.94045008 112.13719837 -99.68977928 112.13140106 C-101.06970857 112.13007346 -102.44964069 112.13046759 -103.82956886 112.13266373 C-105.70559211 112.13537517 -107.58162155 112.13138046 -109.4576416 112.12698364 C-110.50995216 112.12660662 -111.56226273 112.12622959 -112.64646149 112.12584114 C-115 112 -115 112 -116 111 C-116.25 108.5625 -116.25 108.5625 -116 106 C-112.68629 103.79086 -111.6553979 103.77518447 -107.8125 103.875 C-106.91144531 103.89304687 -106.01039062 103.91109375 -105.08203125 103.9296875 C-104.39496094 103.95289063 -103.70789063 103.97609375 -103 104 C-103.01047363 103.34402832 -103.02094727 102.68805664 -103.03173828 102.01220703 C-103.07322503 99.04984342 -103.09930262 96.08754084 -103.125 93.125 C-103.14175781 92.09246094 -103.15851563 91.05992187 -103.17578125 89.99609375 C-103.18222656 89.00996094 -103.18867187 88.02382812 -103.1953125 87.0078125 C-103.20578613 86.09660645 -103.21625977 85.18540039 -103.22705078 84.24658203 C-103 82 -103 82 -101 80 C-98.49389648 79.75708008 -98.49389648 79.75708008 -95.37109375 79.76953125 C-94.25412109 79.77146484 -93.13714844 79.77339844 -91.98632812 79.77539062 C-90.81521484 79.78763672 -89.64410156 79.79988281 -88.4375 79.8125 C-87.26251953 79.81314453 -86.08753906 79.81378906 -84.87695312 79.81445312 C-76.14012141 79.85987859 -76.14012141 79.85987859 -75 81 C-74.91286169 82.70772358 -74.89299993 84.41898649 -74.90234375 86.12890625 C-74.90556641 87.16337891 -74.90878906 88.19785156 -74.91210938 89.26367188 C-74.92467773 90.8965918 -74.92467773 90.8965918 -74.9375 92.5625 C-74.94201172 93.65498047 -74.94652344 94.74746094 -74.95117188 95.87304688 C-74.96300174 98.58208495 -74.97948457 101.29101599 -75 104 C-74.34 104 -73.68 104 -73 104 C-73.01571045 102.71311279 -73.0314209 101.42622559 -73.04760742 100.1003418 C-73.10185775 95.33136236 -73.1363323 90.56241026 -73.16479492 85.79321289 C-73.17989271 83.72806209 -73.20037274 81.6629434 -73.22631836 79.59790039 C-73.26265795 76.63159261 -73.2797163 73.66570829 -73.29296875 70.69921875 C-73.30845261 69.7741301 -73.32393646 68.84904144 -73.33988953 67.8959198 C-73.34011612 67.03525406 -73.34034271 66.17458832 -73.34057617 65.2878418 C-73.34723801 64.53061325 -73.35389984 63.7733847 -73.36076355 62.99320984 C-72.8997388 60.44605932 -72.02344202 59.5669514 -70 58 C-67.70336914 57.61181641 -67.70336914 57.61181641 -65.03515625 57.6015625 C-64.07029297 57.59769531 -63.10542969 57.59382813 -62.11132812 57.58984375 C-61.10521484 57.60144531 -60.09910156 57.61304688 -59.0625 57.625 C-58.06025391 57.61339844 -57.05800781 57.60179687 -56.02539062 57.58984375 C-55.05923828 57.59371094 -54.09308594 57.59757812 -53.09765625 57.6015625 C-51.77519897 57.60663818 -51.77519897 57.60663818 -50.42602539 57.61181641 C-47.25204627 58.11967862 -46.06488764 58.48058292 -44 61 C-43.43597797 64.23379089 -43.53632191 67.42578101 -43.609375 70.69921875 C-43.61503479 71.64940384 -43.62069458 72.59958893 -43.62652588 73.5785675 C-43.64892852 76.61538944 -43.6991323 79.65103431 -43.75 82.6875 C-43.77005996 84.74542568 -43.78831161 86.80336983 -43.8046875 88.86132812 C-43.84880613 93.90800607 -43.9178607 98.95380343 -44 104 C-42.68 104 -41.36 104 -40 104 C-40.00999275 102.84155075 -40.00999275 102.84155075 -40.02018738 101.65969849 C-40.08023497 94.39056534 -40.12594178 87.121552 -40.15543652 79.85223579 C-40.17110972 76.11476204 -40.19237761 72.37749277 -40.22631836 68.64013672 C-40.25885367 65.0350836 -40.27684054 61.43022748 -40.28463173 57.82503891 C-40.29018581 56.44786349 -40.30103135 55.07069915 -40.31719017 53.69360733 C-40.33888435 51.76866369 -40.34022471 49.84352288 -40.34057617 47.91845703 C-40.35056892 46.27298386 -40.35056892 46.27298386 -40.36076355 44.5942688 C-40.24171158 43.7381601 -40.12265961 42.88205139 -40 42 C-35.42734569 38.95156379 -30.87785396 39.67112407 -25.5 39.6875 C-23.91251953 39.66333008 -23.91251953 39.66333008 -22.29296875 39.63867188 C-21.27847656 39.63802734 -20.26398438 39.63738281 -19.21875 39.63671875 C-18.28998047 39.63373779 -17.36121094 39.63075684 -16.40429688 39.62768555 C-13.45399459 40.084551 -12.76509847 40.62082697 -11 43 C-10.63923645 45.67655945 -10.63923645 45.67655945 -10.65942383 48.94018555 C-10.65965042 50.16122482 -10.65987701 51.3822641 -10.66011047 52.64030457 C-10.67559433 53.95912125 -10.69107819 55.27793793 -10.70703125 56.63671875 C-10.71262757 58.00006138 -10.7168975 59.36341004 -10.71989441 60.72676086 C-10.73134051 64.31243592 -10.76080514 67.89774554 -10.79400635 71.48327637 C-10.82471261 75.1430975 -10.8384009 78.80297777 -10.85351562 82.46289062 C-10.88567551 89.64209356 -10.93686847 96.82099554 -11 104 C-9.02 103.67 -7.04 103.34 -5 103 C-5.10781095 93.62007839 -5.22050523 84.24023159 -5.33933926 74.86044312 C-5.39437421 70.5044799 -5.44776177 66.14850977 -5.49731445 61.79248047 C-5.54524629 57.58436622 -5.59759695 53.37632751 -5.65294075 49.16830444 C-5.67323452 47.56726985 -5.69196786 45.96621465 -5.70907402 44.36514282 C-5.73340815 42.11314497 -5.76341908 39.86128599 -5.79467773 37.609375 C-5.81799416 35.6907666 -5.81799416 35.6907666 -5.84178162 33.73339844 C-6.01007229 29.76232934 -6.45604937 25.93521289 -7 22 C-7.78375 22.20625 -8.5675 22.4125 -9.375 22.625 C-10.24125 22.74875 -11.1075 22.8725 -12 23 C-12.99 22.01 -12.99 22.01 -14 21 C-14 19.68 -14 18.36 -14 17 C-15.0115918 17.66604248 -16.02318359 18.33208496 -17.06542969 19.01831055 C-18.08605751 19.69030235 -18.08605751 19.69030235 -19.12730408 20.37586975 C-20.69160093 21.40587336 -22.25585918 22.43593561 -23.82008362 23.46604919 C-28.29628676 26.41378482 -32.77303621 29.36068515 -37.25073242 32.30615234 C-46.27630147 38.24482987 -55.29652746 44.19114244 -64.29672241 50.16822815 C-68.32467604 52.84284886 -72.3553178 55.51340364 -76.3861084 58.18374634 C-78.33530211 59.47676516 -80.28314197 60.77182725 -82.22961426 62.06893921 C-84.95829793 63.88703883 -87.69151159 65.69812874 -90.42578125 67.5078125 C-91.23753311 68.05134872 -92.04928497 68.59488495 -92.88563538 69.15489197 C-93.63534103 69.64921219 -94.38504669 70.14353241 -95.1574707 70.65283203 C-96.13113335 71.30011765 -96.13113335 71.30011765 -97.12446594 71.96047974 C-99.1237713 73.06860061 -100.72733446 73.72472275 -103 74 C-105 72 -105 72 -105.40034485 69.5887146 C-105 67 -105 67 -103.14689636 65.2015686 C-102.30459976 64.66663788 -101.46230316 64.13170715 -100.59448242 63.58056641 C-99.67710297 62.98367004 -98.75972351 62.38677368 -97.81454468 61.77178955 C-96.88574493 61.187099 -95.95694519 60.60240845 -95 60 C-93.43741146 58.96152126 -91.87654494 57.92044556 -90.31762695 56.87646484 C-88.7087717 55.81987672 -87.09895379 54.76475326 -85.48828125 53.7109375 C-83.67345306 52.5191998 -81.85867642 51.32738358 -80.04394531 50.13549805 C-78.63900818 49.21382339 -78.63900818 49.21382339 -77.20568848 48.27352905 C-58.0208575 35.68431847 -38.94522441 22.94676489 -20 10 C-21.32 9.01 -22.64 8.02 -24 7 C-23.625 4.5625 -23.625 4.5625 -23 2 C-16.44491941 -1.2775403 -7.13994582 -0.10873014 0 0 Z M2 25 C2.10814276 34.5621146 2.22025636 44.12416009 2.33933926 53.68614483 C2.39447729 58.12626909 2.44788253 62.56640005 2.49731445 67.0065918 C2.54509274 71.2925 2.59744007 75.57833037 2.65294075 79.86414528 C2.6733034 81.49836092 2.69202634 83.13259784 2.70907402 84.76685143 C2.73325331 87.05778051 2.76328871 89.34856421 2.79467773 91.6394043 C2.81022202 92.94290329 2.8257663 94.24640228 2.84178162 95.58940125 C2.92778295 99.29092963 2.92778295 99.29092963 4 104 C9.61 104 15.22 104 21 104 C21.33 77.93 21.66 51.86 22 25 C15.4 25 8.8 25 2 25 Z M-32 48 C-32 66.48 -32 84.96 -32 104 C-27.71 104 -23.42 104 -19 104 C-19 85.52 -19 67.04 -19 48 C-23.29 48 -27.58 48 -32 48 Z M-65 66 C-65 78.54 -65 91.08 -65 104 C-60.71 104 -56.42 104 -52 104 C-52 91.46 -52 78.92 -52 66 C-56.29 66 -60.58 66 -65 66 Z M-95 88 C-95 93.28 -95 98.56 -95 104 C-91.04 104 -87.08 104 -83 104 C-83 98.72 -83 93.44 -83 88 C-86.96 88 -90.92 88 -95 88 Z " fill="#67a9e5" transform="translate(144,43)"/>
</svg>
