<?xml version="1.0" encoding="UTF-8"?>
<!DOCTYPE svg PUBLIC "-//W3C//DTD SVG 1.1//EN" "http://www.w3.org/Graphics/SVG/1.1/DTD/svg11.dtd">
<svg xmlns="http://www.w3.org/2000/svg" version="1.1" width="512px" height="512px" style="shape-rendering:geometricPrecision; text-rendering:geometricPrecision; image-rendering:optimizeQuality; fill-rule:evenodd; clip-rule:evenodd" xmlns:xlink="http://www.w3.org/1999/xlink">
<g><path  fill="#67a9e5" d="M 362.5,71.5 C 355.167,72.1667 347.833,72.8333 340.5,73.5C 293.604,39.9259 243.937,35.4259 191.5,60C 184.348,64.3292 177.348,68.8292 170.5,73.5C 163.018,72.508 155.352,72.1746 147.5,72.5C 184.964,36.453 229.63,22.2863 281.5,30C 313.029,35.4291 340.029,49.2624 362.5,71.5 Z"/></g>
<g><path  fill="#67a9e5" d="M 362.5,71.5 C 374.811,83.4777 384.811,97.1443 392.5,112.5C 386.5,112.5 380.5,112.5 374.5,112.5C 365.376,97.7 354.042,84.7 340.5,73.5C 347.833,72.8333 355.167,72.1667 362.5,71.5 Z"/></g>
<g><path  fill="#67a9e5" d="M 147.5,72.5 C 155.352,72.1746 163.018,72.508 170.5,73.5C 156.958,84.7 145.624,97.7 136.5,112.5C 130.5,112.5 124.5,112.5 118.5,112.5C 125.722,97.3887 135.388,84.0554 147.5,72.5 Z"/></g>
<g><path  fill="#67a9e5" d="M 335.5,111.5 C 328.352,112.492 321.019,112.825 313.5,112.5C 279.89,87.3788 244.557,84.8788 207.5,105C 204.29,107.717 200.956,110.217 197.5,112.5C 189.525,112.558 181.859,112.558 174.5,112.5C 203.361,80.4923 239.028,68.9923 281.5,78C 303.216,83.3492 321.216,94.5158 335.5,111.5 Z"/></g>
<g><path  fill="#67a9e5" d="M 174.5,112.5 C 181.859,112.558 189.525,112.558 197.5,112.5C 185.761,122.589 177.094,134.922 171.5,149.5C 165.925,148.548 160.259,148.214 154.5,148.5C 158.587,134.987 165.253,122.987 174.5,112.5 Z"/></g>
<g><path  fill="#67a9e5" d="M 118.5,112.5 C 124.5,112.5 130.5,112.5 136.5,112.5C 130.664,123.671 125.997,135.338 122.5,147.5C 119.752,148.119 116.919,148.452 114,148.5C 111.071,148.475 108.571,147.809 106.5,146.5C 108.737,134.452 112.737,123.118 118.5,112.5 Z"/></g>
<g><path  fill="#67a9e5" d="M 335.5,111.5 C 345.313,122.113 352.313,134.446 356.5,148.5C 350.833,148.5 345.167,148.5 339.5,148.5C 333.48,134.496 324.813,122.496 313.5,112.5C 321.019,112.825 328.352,112.492 335.5,111.5 Z"/></g>
<g><path  fill="#67a9e5" d="M 374.5,112.5 C 380.5,112.5 386.5,112.5 392.5,112.5C 398.392,123.837 402.726,135.837 405.5,148.5C 399.741,148.786 394.075,148.452 388.5,147.5C 385.012,135.371 380.345,123.705 374.5,112.5 Z"/></g>
<g><path  fill="#67a9e5" d="M 106.5,146.5 C 108.571,147.809 111.071,148.475 114,148.5C 116.919,148.452 119.752,148.119 122.5,147.5C 119.386,159.966 118.053,172.633 118.5,185.5C 113.26,184.551 107.927,184.218 102.5,184.5C 101.861,183.903 101.528,183.07 101.5,182C 102.228,175.857 102.728,169.691 103,163.5C 103.539,157.57 104.705,151.904 106.5,146.5 Z"/></g>
<g><path  fill="#67a9e5" d="M 388.5,147.5 C 394.075,148.452 399.741,148.786 405.5,148.5C 408.083,160.551 409.083,172.551 408.5,184.5C 403.167,184.5 397.833,184.5 392.5,184.5C 392.853,171.972 391.519,159.639 388.5,147.5 Z"/></g>
<g><path  fill="#67a9e5" d="M 154.5,148.5 C 160.259,148.214 165.925,148.548 171.5,149.5C 166.802,161.353 164.802,173.687 165.5,186.5C 160.384,184.205 155.051,183.871 149.5,185.5C 148.479,172.779 150.145,160.446 154.5,148.5 Z"/></g>
<g><path  fill="#67a9e5" d="M 339.5,148.5 C 345.167,148.5 350.833,148.5 356.5,148.5C 360.771,160.129 362.438,172.129 361.5,184.5C 356.073,184.218 350.74,184.551 345.5,185.5C 345.986,172.748 343.986,160.415 339.5,148.5 Z"/></g>
<g><path  fill="#67a9e5" d="M 102.5,184.5 C 107.927,184.218 113.26,184.551 118.5,185.5C 118.975,197.346 120.641,209.013 123.5,220.5C 118.167,220.5 112.833,220.5 107.5,220.5C 103.798,208.915 102.131,196.915 102.5,184.5 Z"/></g>
<g><path  fill="#67a9e5" d="M 361.5,184.5 C 361.652,197.876 358.985,210.543 353.5,222.5C 348.41,220.856 343.077,219.856 337.5,219.5C 342.052,208.625 344.719,197.291 345.5,185.5C 350.74,184.551 356.073,184.218 361.5,184.5 Z"/></g>
<g><path  fill="#67a9e5" d="M 165.5,186.5 C 166.318,198.442 169.318,209.775 174.5,220.5C 168.5,220.5 162.5,220.5 156.5,220.5C 151.792,209.331 149.459,197.665 149.5,185.5C 155.051,183.871 160.384,184.205 165.5,186.5 Z"/></g>
<g><path  fill="#67a9e5" d="M 392.5,184.5 C 397.833,184.5 403.167,184.5 408.5,184.5C 408.869,196.915 407.202,208.915 403.5,220.5C 398.167,220.5 392.833,220.5 387.5,220.5C 390.468,208.69 392.135,196.69 392.5,184.5 Z"/></g>
<g><path  fill="#67a9e5" d="M 107.5,220.5 C 112.833,220.5 118.167,220.5 123.5,220.5C 130.052,239.607 139.719,256.941 152.5,272.5C 145.833,272.5 139.167,272.5 132.5,272.5C 120.454,257.07 112.12,239.737 107.5,220.5 Z"/></g>
<g><path  fill="#67a9e5" d="M 387.5,220.5 C 392.833,220.5 398.167,220.5 403.5,220.5C 398.88,239.737 390.546,257.07 378.5,272.5C 371.833,272.5 365.167,272.5 358.5,272.5C 371.281,256.941 380.948,239.607 387.5,220.5 Z"/></g>
<g><path  fill="#67a9e5" d="M 337.5,219.5 C 343.077,219.856 348.41,220.856 353.5,222.5C 337.299,259.184 309.299,280.684 269.5,287C 216.133,290.999 178.466,268.832 156.5,220.5C 162.5,220.5 168.5,220.5 174.5,220.5C 191.582,252.893 218.582,269.893 255.5,271.5C 292.983,269.779 320.316,252.446 337.5,219.5 Z"/></g>
<g><path  fill="#67a9e5" d="M 132.5,272.5 C 139.167,272.5 145.833,272.5 152.5,272.5C 196.822,317.401 248.822,329.234 308.5,308C 327.481,299.35 344.147,287.517 358.5,272.5C 365.167,272.5 371.833,272.5 378.5,272.5C 365.342,290.819 348.842,305.485 329,316.5C 328.5,324.159 328.334,331.826 328.5,339.5C 327.511,334.025 327.178,328.358 327.5,322.5C 279.5,322.5 231.5,322.5 183.5,322.5C 183.795,320.265 183.461,318.265 182.5,316.5C 162.372,305.702 145.706,291.035 132.5,272.5 Z"/></g>
<g><path  fill="#67a9e5" d="M 182.5,316.5 C 183.461,318.265 183.795,320.265 183.5,322.5C 231.5,322.5 279.5,322.5 327.5,322.5C 327.178,328.358 327.511,334.025 328.5,339.5C 328.5,360.5 328.5,381.5 328.5,402.5C 327.506,392.681 327.173,382.681 327.5,372.5C 322.5,372.5 317.5,372.5 312.5,372.5C 312.806,375.385 312.473,378.052 311.5,380.5C 311.667,361.83 311.5,343.164 311,324.5C 283.241,334.815 254.741,337.315 225.5,332C 216.925,330.273 208.592,327.773 200.5,324.5C 199.501,337.817 199.167,351.15 199.5,364.5C 198.527,366.948 198.194,369.615 198.5,372.5C 193.5,372.5 188.5,372.5 183.5,372.5C 183.806,369.615 183.473,366.948 182.5,364.5C 182.5,348.5 182.5,332.5 182.5,316.5 Z"/></g>
<g><path  fill="#67a9e5" d="M 182.5,364.5 C 183.473,366.948 183.806,369.615 183.5,372.5C 188.5,372.5 193.5,372.5 198.5,372.5C 198.194,369.615 198.527,366.948 199.5,364.5C 199.5,377.833 199.5,391.167 199.5,404.5C 198.509,411.313 198.175,418.313 198.5,425.5C 193.5,425.5 188.5,425.5 183.5,425.5C 183.828,436.346 183.494,447.013 182.5,457.5C 182.5,426.5 182.5,395.5 182.5,364.5 Z"/></g>
<g><path  fill="#67a9e5" d="M 328.5,402.5 C 328.667,433.835 328.5,465.168 328,496.5C 324.937,503.409 320.104,504.909 313.5,501C 294.299,488.968 274.965,477.135 255.5,465.5C 234.363,478.817 212.863,491.484 191,503.5C 186.761,502.926 184.094,500.592 183,496.5C 182.5,483.504 182.333,470.504 182.5,457.5C 183.494,447.013 183.828,436.346 183.5,425.5C 188.5,425.5 193.5,425.5 198.5,425.5C 198.175,418.313 198.509,411.313 199.5,404.5C 199.167,429.509 199.5,454.509 200.5,479.5C 218.428,468.039 236.761,457.373 255.5,447.5C 258.028,447.763 260.361,448.596 262.5,450C 278.368,460.032 294.368,469.865 310.5,479.5C 311.5,446.507 311.833,413.507 311.5,380.5C 312.473,378.052 312.806,375.385 312.5,372.5C 317.5,372.5 322.5,372.5 327.5,372.5C 327.173,382.681 327.506,392.681 328.5,402.5 Z"/></g>
</svg>
