<?xml version="1.0" encoding="UTF-8"?>
<svg version="1.1" xmlns="http://www.w3.org/2000/svg" width="512" height="512" fill="#67a9e5">
<path d="M0 0 C0.97801431 -0.00765109 1.95602862 -0.01530219 2.96367973 -0.02318513 C6.22014474 -0.04371886 9.47589613 -0.03588565 12.73240662 -0.02792358 C15.07541045 -0.03662341 17.41840859 -0.04699158 19.76139832 -0.05889893 C26.11043794 -0.08563695 32.45923916 -0.08684134 38.8083241 -0.08177233 C44.78324308 -0.07935956 50.75812885 -0.09179576 56.7330346 -0.10263924 C69.28660519 -0.12436074 81.84006815 -0.12007848 94.39364474 -0.10786955 C105.86912123 -0.09752601 117.34425844 -0.12006062 128.81966782 -0.15806599 C140.61735296 -0.19683785 152.41487762 -0.2133327 164.21262687 -0.20581949 C170.83038361 -0.20199863 177.44788764 -0.20747116 184.06559944 -0.23524857 C190.28663388 -0.26038547 196.50698818 -0.25653668 202.72801208 -0.23042679 C205.00965542 -0.22569229 207.2913465 -0.23117546 209.5729351 -0.24767303 C212.6905262 -0.26858887 215.80583069 -0.25242882 218.92333984 -0.22705078 C219.82383468 -0.24179935 220.72432951 -0.25654792 221.65211207 -0.27174342 C229.68337069 -0.13441527 233.92800497 3.52467712 239.41331482 9.05900574 C240.54664246 10.36598671 240.54664246 10.36598671 241.7028656 11.69937134 C248.90791809 19.80305549 256.65054654 27.36945116 264.34077454 35.00858879 C267.07569302 37.72591367 269.80687845 40.44694155 272.53709412 43.16899109 C280.29101223 50.89861735 288.05072596 58.62240623 295.81468201 66.34194946 C300.58449469 71.0845659 305.34900357 75.83245885 310.11076355 80.58316231 C311.92058337 82.38677855 313.73229795 84.18849561 315.54594421 85.98826408 C318.07286573 88.49599495 320.59359032 91.00980247 323.11302185 93.52505493 C323.86106583 94.26433731 324.6091098 95.00361969 325.37982178 95.76530457 C330.76734588 101.16306202 334.2266985 104.64844673 334.2714386 112.66462708 C334.26065277 113.46016495 334.24986694 114.25570282 334.23875427 115.0753479 C334.23919235 115.92463867 334.23963043 116.77392944 334.24008179 117.6489563 C334.23799751 120.44651554 334.21468356 123.24346996 334.19114685 126.04092407 C334.18554961 127.98433607 334.18128012 129.9277523 334.17828369 131.87117004 C334.16684501 136.97910304 334.13738612 142.08677897 334.10417175 147.1946106 C334.07344988 152.40962242 334.05977382 157.6246759 334.04466248 162.8397522 C334.01251558 173.06707851 333.96133093 183.29421426 333.8981781 193.52139282 C334.68665131 193.51251038 335.47512451 193.50362793 336.28749084 193.49447632 C343.73195623 193.41420134 351.17621063 193.35336334 358.62099648 193.31414413 C362.44811652 193.29330293 366.27487779 193.26504982 370.10179138 193.21963501 C373.797652 193.17605181 377.49316836 193.15222965 381.1892662 193.14188385 C382.59665213 193.13451469 384.00402003 193.12012419 385.4112587 193.0984726 C387.38799281 193.0692789 389.36507614 193.06775757 391.34202576 193.06729126 C393.02746994 193.05396759 393.02746994 193.05396759 394.7469635 193.04037476 C399.50341276 193.76642433 402.54309485 195.83903191 405.54755688 199.56912708 C407.46391924 203.75802243 407.31629512 207.48584064 407.28585815 212.04176331 C407.29393646 213.48739894 407.29393646 213.48739894 407.30217797 214.96223933 C407.31649471 218.19424494 407.30934454 221.42584314 407.30223083 224.65786743 C407.30793244 226.97396678 407.31489588 229.29006331 407.32302856 231.6061554 C407.34099799 237.8994903 407.33978446 244.19268605 407.33408618 250.48603892 C407.33099986 255.73723311 407.33708056 260.98840035 407.34312493 266.2395907 C407.35798489 279.33458118 407.35434616 292.42949336 407.34226162 305.52448357 C407.33232907 316.89479495 407.34526998 328.2649436 407.36919581 339.63522988 C407.39358331 351.31298451 407.40279574 362.99065657 407.39654309 374.66843611 C407.3931684 381.22354214 407.39562268 387.77851372 407.41279411 394.333601 C407.42823429 400.49699955 407.42433994 406.66008685 407.40548897 412.82347298 C407.40179503 415.08659937 407.40493484 417.34974868 407.41537476 419.612854 C407.42853085 422.70027677 407.41708423 425.78666096 407.39938354 428.8740387 C407.40898855 429.77141485 407.41859356 430.668791 407.42848963 431.59336036 C407.3639634 437.05658631 406.54421599 440.19020607 402.8981781 444.52139282 C399.09357354 447.52592616 396.2420078 447.89029122 391.45555115 447.86196899 C390.17460068 447.8617424 388.89365021 447.86151581 387.57388306 447.86128235 C386.18588406 447.84596475 384.79788867 447.8303168 383.40989685 447.81436157 C381.98215176 447.80876208 380.55440088 447.80449365 379.12664795 447.80149841 C375.37989722 447.79007731 371.63349874 447.76063423 367.8868866 447.72738647 C364.05931869 447.69662624 360.23169352 447.6829804 356.40403748 447.6678772 C348.90192426 447.63576143 341.40010065 447.58459879 333.8981781 447.52139282 C333.94530945 449.38102661 333.94530945 449.38102661 333.99339294 451.27822876 C334.102962 455.92981412 334.17122314 460.58128836 334.22776794 465.23379517 C334.25772313 467.23757178 334.29850286 469.24121974 334.35081482 471.24453735 C334.93749282 494.30903527 334.93749282 494.30903527 326.27342224 504.41690063 C318.27051608 512.0250446 309.30503622 513.10874408 298.67227173 513.04278564 C297.35814483 513.05043674 296.04401794 513.05808783 294.69006902 513.06597078 C291.06214221 513.08646159 287.43461221 513.08218527 283.80665338 513.07360959 C279.8862571 513.06866235 275.9659548 513.08671922 272.04559326 513.10168457 C264.37253465 513.12714812 256.69961611 513.13076975 249.02652236 513.12608404 C242.78731207 513.12251377 236.5481442 513.12602537 230.30893898 513.13453293 C229.41995674 513.13572331 228.53097451 513.13691368 227.61505342 513.13814013 C225.80890199 513.14056372 224.00275058 513.14299198 222.19659916 513.14542489 C205.26837663 513.1671645 188.34023384 513.16285647 171.41200683 513.1506552 C155.93972087 513.14031939 140.46768683 513.16282284 124.9954507 513.20085163 C109.09354949 513.23963564 93.19176738 513.25611559 77.28981858 513.24860513 C68.36810757 513.24478495 59.44661092 513.24971826 50.52493858 513.27803421 C42.92914629 513.30189878 35.3337003 513.30463089 27.73790308 513.28045388 C23.86584429 513.26870134 19.99441829 513.26640557 16.12240219 513.29045868 C11.91611538 513.31628357 7.71132502 513.29518889 3.5050354 513.26983643 C2.29324322 513.284585 1.08145105 513.29933357 -0.1670621 513.31452906 C-9.26637457 513.19948549 -17.11904349 510.85585075 -24.1038726 504.77983344 C-30.76721511 497.79180296 -32.70907457 489.6181695 -32.4924469 480.23623657 C-32.48678711 479.29454117 -32.48112732 478.35284576 -32.47529602 477.38261414 C-32.45310301 474.40749874 -32.40294015 471.43363734 -32.3518219 468.45889282 C-32.33173478 466.42831139 -32.31348791 464.39771088 -32.2971344 462.36709595 C-32.25329443 457.41805323 -32.18438757 452.4699348 -32.1018219 447.52139282 C-32.8902951 447.53027527 -33.67876831 447.53915771 -34.49113464 447.54830933 C-41.93560003 447.6285843 -49.37985443 447.68942231 -56.82464027 447.72864151 C-60.65176032 447.74948272 -64.47852159 447.77773583 -68.30543518 447.82315063 C-72.0012958 447.86673383 -75.69681216 447.890556 -79.39291 447.90090179 C-80.80029593 447.90827096 -82.20766383 447.92266145 -83.6149025 447.94431305 C-85.59163661 447.97350675 -87.56871993 447.97502808 -89.54566956 447.97549438 C-91.23111374 447.98881805 -91.23111374 447.98881805 -92.9506073 448.00241089 C-97.70705656 447.27636131 -100.74673865 445.20375374 -103.75120068 441.47365856 C-105.66756304 437.28476322 -105.51993892 433.556945 -105.48950195 429.00102234 C-105.49488749 428.03726525 -105.50027303 427.07350817 -105.50582176 426.08054632 C-105.52013851 422.8485407 -105.51298834 419.61694251 -105.50587463 416.38491821 C-105.51157624 414.06881887 -105.51853968 411.75272233 -105.52667236 409.43663025 C-105.54464179 403.14329535 -105.54342826 396.85009959 -105.53772998 390.55674672 C-105.53464366 385.30555254 -105.54072436 380.0543853 -105.54676872 374.80319494 C-105.56162869 361.70820446 -105.55798996 348.61329228 -105.54590542 335.51830208 C-105.53597287 324.1479907 -105.54891378 312.77784204 -105.57283961 301.40755577 C-105.59722711 289.72980114 -105.60643954 278.05212907 -105.60018688 266.37434953 C-105.5968122 259.8192435 -105.59926648 253.26427193 -105.61643791 246.70918465 C-105.63187809 240.54578609 -105.62798374 234.38269879 -105.60913277 228.21931267 C-105.60543883 225.95618627 -105.60857864 223.69303697 -105.61901855 221.42993164 C-105.63217465 218.34250887 -105.62072803 215.25612469 -105.60302734 212.16874695 C-105.61743485 210.82268272 -105.61743485 210.82268272 -105.63213342 209.44942528 C-105.56786186 204.00776015 -104.84213831 200.75912127 -101.1018219 196.52139282 C-97.29721734 193.51685949 -94.4456516 193.15249442 -89.65919495 193.18081665 C-87.73776924 193.18115654 -87.73776924 193.18115654 -85.77752686 193.1815033 C-84.38952786 193.1968209 -83.00153247 193.21246884 -81.61354065 193.22842407 C-80.18579556 193.23402356 -78.75804468 193.238292 -77.33029175 193.24128723 C-73.58354102 193.25270833 -69.83714254 193.28215142 -66.0905304 193.31539917 C-62.26296249 193.3461594 -58.43533732 193.35980524 -54.60768127 193.37490845 C-47.10556806 193.40702421 -39.60374445 193.45818685 -32.1018219 193.52139282 C-32.10735266 192.65116611 -32.11288342 191.78093941 -32.11858177 190.88434219 C-32.25129292 169.67506182 -32.35047578 148.46585337 -32.41269493 127.25624466 C-32.44358621 116.99926051 -32.48567606 106.74255412 -32.55445862 96.48574829 C-32.61440569 87.54219359 -32.65300539 78.59884013 -32.66635287 69.65509009 C-32.6741508 64.92269195 -32.69237818 60.19086934 -32.73620224 55.45865631 C-32.77718569 50.99666896 -32.78943951 46.53548954 -32.78046799 42.07333183 C-32.78210721 40.44319442 -32.7938886 38.81302759 -32.81705475 37.18305397 C-32.96306537 26.37167271 -31.76763832 17.20699403 -24.47826195 8.60560989 C-17.46028302 2.02278178 -9.38402894 -0.07896404 0 0 Z M-2.1018219 30.52139282 C-2.1018219 84.31139282 -2.1018219 138.10139282 -2.1018219 193.52139282 C98.5481781 193.52139282 199.1981781 193.52139282 302.8981781 193.52139282 C302.8981781 171.74139282 302.8981781 149.96139282 302.8981781 127.52139282 C296.74806091 127.48401001 290.59794373 127.4466272 284.26145935 127.40811157 C280.36494695 127.37783511 276.46848042 127.34668937 272.57200623 127.31240845 C266.38754072 127.25808085 260.20316594 127.20697095 254.01853943 127.17495728 C249.03226758 127.14894532 244.04630031 127.10855766 239.0602169 127.05820656 C237.15807573 127.04152361 235.25588185 127.03001823 233.35367775 127.02377892 C230.68890591 127.0141534 228.0249158 126.98611281 225.3603363 126.95376587 C224.57414917 126.95520096 223.78796204 126.95663605 222.97795105 126.95811462 C218.4471628 126.88034813 215.42740625 126.44055823 211.8981781 123.52139282 C195.93406393 96.91453588 208.25075375 61.5480502 207.8981781 30.52139282 C138.5981781 30.52139282 69.2981781 30.52139282 -2.1018219 30.52139282 Z M237.8981781 54.52139282 C237.8981781 68.71139282 237.8981781 82.90139282 237.8981781 97.52139282 C252.0881781 97.52139282 266.2781781 97.52139282 280.8981781 97.52139282 C276.03621801 91.82112667 276.03621801 91.82112667 270.9282074 86.42202759 C270.2111412 85.70180923 269.49407501 84.98159088 268.75527954 84.23954773 C268.00192825 83.48822067 267.24857697 82.73689362 266.47239685 81.96279907 C265.68420059 81.17364609 264.89600433 80.3844931 264.08392334 79.57142639 C262.43038164 77.91720808 260.77559201 76.26423633 259.11961365 74.61245728 C256.57262858 72.07087097 254.0310778 69.52393693 251.48997498 66.97647095 C249.88026986 65.36742586 248.27025499 63.7586906 246.65989685 62.15029907 C245.89642441 61.3848024 245.13295197 60.61930573 244.34634399 59.83061218 C243.6450386 59.13245895 242.94373322 58.43430573 242.22117615 57.71499634 C241.60195786 57.09657364 240.98273956 56.47815094 240.34475708 55.84098816 C239.10138667 54.40907004 239.10138667 54.40907004 237.8981781 54.52139282 Z M-75.1018219 223.52139282 C-75.1018219 287.54139282 -75.1018219 351.56139282 -75.1018219 417.52139282 C73.7281781 417.52139282 222.5581781 417.52139282 375.8981781 417.52139282 C375.8981781 353.50139282 375.8981781 289.48139282 375.8981781 223.52139282 C227.0681781 223.52139282 78.2381781 223.52139282 -75.1018219 223.52139282 Z M-2.1018219 447.52139282 C-2.1018219 459.07139282 -2.1018219 470.62139282 -2.1018219 482.52139282 C98.5481781 482.52139282 199.1981781 482.52139282 302.8981781 482.52139282 C302.8981781 470.97139282 302.8981781 459.42139282 302.8981781 447.52139282 C202.2481781 447.52139282 101.5981781 447.52139282 -2.1018219 447.52139282 Z " fill="#67a9e5" transform="translate(105.10182189941406,-0.521392822265625)"/>
<path d="M0 0 C9.50720885 4.70136701 12.35600279 17.39145377 15.7421875 26.609375 C16.30215085 28.11305826 16.86293969 29.61643432 17.42449951 31.11952209 C18.91300217 35.11019006 20.3909267 39.10469022 21.86611557 43.10029602 C24.29253394 49.66705426 26.73423733 56.22816387 29.17247963 62.79053879 C30.07115364 65.21049624 30.96850157 67.63094263 31.86576843 70.05142212 C35.07989113 78.71263997 38.34695281 87.34847165 41.73046875 95.9453125 C42.24094505 97.25105476 42.24094505 97.25105476 42.76173401 98.58317566 C44.22998549 102.33853641 45.71318878 106.08592554 47.23217773 109.82104492 C50.22059806 117.35313661 52.00794248 124.22411699 50.83984375 132.37890625 C48.65340676 136.99471767 46.34384571 139.1075471 41.83984375 141.37890625 C36.3869856 142.19353243 31.42229077 142.05709783 26.33984375 139.87890625 C20.43133646 133.97039896 18.67742759 126.18226181 15.83984375 118.37890625 C-0.00015625 118.04890625 -15.84015625 117.71890625 -32.16015625 117.37890625 C-33.15015625 120.34890625 -34.14015625 123.31890625 -35.16015625 126.37890625 C-37.46079615 132.57433024 -39.91369193 138.25567409 -46.16015625 141.37890625 C-51.74408758 141.88881615 -56.60067713 142.11760688 -61.72265625 139.69140625 C-65.91027372 135.7185384 -67.81874887 132.18283175 -68.16015625 126.37890625 C-66.92607526 120.70733696 -65.17865903 115.37295801 -63.1328125 109.94921875 C-62.83204803 109.14168655 -62.53128357 108.33415436 -62.22140503 107.50215149 C-61.22624988 104.83439119 -60.2246336 102.16911098 -59.22265625 99.50390625 C-58.51679423 97.61734902 -57.81115112 95.73070988 -57.10571289 93.84399414 C-49.23163108 72.81259471 -41.2879034 51.80552928 -33.24169922 30.83935547 C-31.87280135 27.26782607 -30.53525674 23.6869966 -29.22314453 20.09423828 C-28.91663467 19.26964615 -28.61012482 18.44505402 -28.29432678 17.59547424 C-27.72965406 16.07586262 -27.17504338 14.55245189 -26.63328552 13.02452087 C-22.17464412 1.15616488 -12.03603809 -3.46063301 0 0 Z M-9.16015625 55.37890625 C-10.73309965 59.45159748 -12.29949201 63.52672868 -13.85986328 67.60424805 C-14.39159688 68.99100538 -14.92511427 70.3770801 -15.46044922 71.76245117 C-16.22963982 73.75392703 -16.99238109 75.74776994 -17.75390625 77.7421875 C-18.21474609 78.94141846 -18.67558594 80.14064941 -19.15039062 81.3762207 C-20.31952961 84.32483876 -20.31952961 84.32483876 -20.16015625 87.37890625 C-11.91015625 87.37890625 -3.66015625 87.37890625 4.83984375 87.37890625 C3.29267212 83.14266367 1.7447946 78.9066934 0.19506836 74.67138672 C-0.33204842 73.23013549 -0.85874337 71.78872992 -1.38500977 70.34716797 C-2.14098364 68.27661182 -2.8984666 66.20661322 -3.65625 64.13671875 C-4.00942543 63.16788254 -4.00942543 63.16788254 -4.36973572 62.17947388 C-5.21983556 59.86080766 -6.0547093 57.58980015 -7.16015625 55.37890625 C-7.82015625 55.37890625 -8.48015625 55.37890625 -9.16015625 55.37890625 Z " fill="#67a9e5" transform="translate(264.16015625,249.62109375)"/>
<path d="M0 0 C0.99902344 -0.01933594 1.99804688 -0.03867188 3.02734375 -0.05859375 C8.40793595 0.82085954 11.65063764 3.64233865 14.81640625 7.9140625 C15.76307535 9.28972764 16.69876749 10.67299279 17.625 12.0625 C18.66417289 13.57894232 19.70458301 15.09453739 20.74609375 16.609375 C21.28347168 17.39634766 21.82084961 18.18332031 22.37451172 18.99414062 C25.24476899 23.1488318 28.21844423 27.22812428 31.1875 31.3125 C32.27398205 32.80950076 33.35995852 34.30686866 34.4453125 35.8046875 C34.90309082 36.43487793 35.36086914 37.06506836 35.83251953 37.71435547 C36.94062807 39.26676318 38.00450855 40.85051282 39.0625 42.4375 C42.49449991 41.29350003 42.860539 40.66412783 44.77734375 37.74609375 C45.29296875 36.97346191 45.80859375 36.20083008 46.33984375 35.40478516 C46.88769531 34.56995605 47.43554688 33.73512695 48 32.875 C52.38520282 26.33068007 56.84006031 19.86878939 61.5625 13.5625 C62.04195068 12.91595459 62.52140137 12.26940918 63.01538086 11.60327148 C69.83921724 2.54914138 69.83921724 2.54914138 74.0625 0.4375 C79.64643133 -0.0724099 84.50302088 -0.30120063 89.625 2.125 C93.52690518 5.82680748 95.55551372 9.34871405 95.9375 14.75 C95.7004626 23.19059257 90.65465377 28.83252814 85.71386719 35.26953125 C82.89262352 38.97335203 80.21002096 42.77700361 77.5 46.5625 C74.36843618 50.9114015 71.22080946 55.24306264 67.98046875 59.51171875 C67.27096069 60.46183838 67.27096069 60.46183838 66.54711914 61.43115234 C65.66678828 62.60882606 64.77469435 63.77783482 63.86889648 64.93603516 C62.14149761 67.26678387 61.08143823 68.90722951 60.9765625 71.84375 C62.574616 75.66068354 64.87057183 78.80049799 67.3125 82.125 C67.84391602 82.86322998 68.37533203 83.60145996 68.92285156 84.36206055 C70.62767637 86.72674522 72.34422412 89.08257593 74.0625 91.4375 C75.19854146 93.00215071 76.33396337 94.56725146 77.46875 96.1328125 C78.02377197 96.89811279 78.57879395 97.66341309 79.15063477 98.4519043 C80.79275879 100.72270104 82.42619522 102.99954944 84.05859375 105.27734375 C85.88484607 107.82507846 87.7433305 110.3362929 89.66015625 112.81640625 C94.1045036 118.82842462 96.15456422 123.22163809 95.58984375 130.80078125 C94.63608839 135.56955806 92.69693755 138.26924223 88.7890625 141.0625 C85.6701677 142.63535239 83.60186576 142.87052527 80.125 142.875 C79.12597656 142.89433594 78.12695312 142.91367187 77.09765625 142.93359375 C71.71706405 142.05414046 68.47436236 139.23266135 65.30859375 134.9609375 C64.36192465 133.58527236 63.42623251 132.20200721 62.5 130.8125 C61.46082711 129.29605768 60.42041699 127.78046261 59.37890625 126.265625 C58.84152832 125.47865234 58.30415039 124.69167969 57.75048828 123.88085938 C54.88023101 119.7261682 51.90655577 115.64687572 48.9375 111.5625 C47.85101795 110.06549924 46.76504148 108.56813134 45.6796875 107.0703125 C44.99302002 106.12502686 44.99302002 106.12502686 44.29248047 105.16064453 C43.18437193 103.60823682 42.12049145 102.02448718 41.0625 100.4375 C37.63050009 101.58149997 37.264461 102.21087217 35.34765625 105.12890625 C34.83203125 105.90153809 34.31640625 106.67416992 33.78515625 107.47021484 C33.23730469 108.30504395 32.68945312 109.13987305 32.125 110 C27.73979718 116.54431993 23.28493969 123.00621061 18.5625 129.3125 C18.08304932 129.95904541 17.60359863 130.60559082 17.10961914 131.27172852 C10.28578276 140.32585862 10.28578276 140.32585862 6.0625 142.4375 C0.47856867 142.9474099 -4.37802088 143.17620063 -9.5 140.75 C-14.06264726 136.42133465 -15.6111149 132.74761185 -15.9375 126.4375 C-14.72500455 120.18437881 -11.8732061 116.08587904 -8.0625 111.0625 C-6.88315858 109.47075995 -5.70479644 107.87829395 -4.52734375 106.28515625 C-3.62991455 105.07883545 -3.62991455 105.07883545 -2.71435547 103.84814453 C0.55658155 99.41049241 3.70713645 94.88813331 6.86352539 90.36865234 C9.06072978 87.23296217 11.27383212 84.12800527 13.625 81.10546875 C14.3675 80.14253906 15.11 79.17960937 15.875 78.1875 C16.52082031 77.37796875 17.16664063 76.5684375 17.83203125 75.734375 C19.23969604 73.53141892 19.23969604 73.53141892 19.08984375 71.12109375 C17.59404366 67.21381366 15.2790288 64.10799393 12.8125 60.75 C12.28108398 60.01177002 11.74966797 59.27354004 11.20214844 58.51293945 C9.49732363 56.14825478 7.78077588 53.79242407 6.0625 51.4375 C4.92645854 49.87284929 3.79103663 48.30774854 2.65625 46.7421875 C2.10122803 45.97688721 1.54620605 45.21158691 0.97436523 44.4230957 C-0.66775879 42.15229896 -2.30119522 39.87545056 -3.93359375 37.59765625 C-5.75984607 35.04992154 -7.6183305 32.5387071 -9.53515625 30.05859375 C-13.9795036 24.04657538 -16.02956422 19.65336191 -15.46484375 12.07421875 C-14.51108839 7.30544194 -12.57193755 4.60575777 -8.6640625 1.8125 C-5.5451677 0.23964761 -3.47686576 0.00447473 0 0 Z " fill="#67a9e5" transform="translate(343.9375,248.5625)"/>
<path d="M0 0 C0.88842087 -0.00686325 1.77684174 -0.0137265 2.69218445 -0.02079773 C5.6231595 -0.0390693 8.55359946 -0.03522767 11.48461914 -0.02954102 C13.52576369 -0.03410267 15.56690671 -0.0394082 17.60804749 -0.04542542 C21.88426964 -0.05435725 26.16030504 -0.05193254 30.43652344 -0.04199219 C35.91213103 -0.03050312 41.38709367 -0.0507129 46.86261654 -0.07990932 C51.07743921 -0.09826965 55.29210729 -0.09797916 59.50695992 -0.0922718 C61.52554796 -0.09211857 63.54414648 -0.09816495 65.56269646 -0.11056328 C68.38725935 -0.12546793 71.21063024 -0.11479996 74.03515625 -0.09765625 C74.86599731 -0.10732422 75.69683838 -0.11699219 76.55285645 -0.12695312 C81.85871355 -0.0596368 84.86360929 0.9012414 89.08227539 4.40405273 C93.13857937 9.62665131 92.85625083 15.05745416 92.08227539 21.40405273 C89.90487758 26.00078145 87.61171471 28.2021053 83.08227539 30.40405273 C79.66894531 30.74462891 79.66894531 30.74462891 75.81274414 30.69702148 C75.13174149 30.69277664 74.45073883 30.6885318 73.74909973 30.68415833 C71.58891081 30.66745883 69.42967897 30.62982585 67.26977539 30.59155273 C65.79908581 30.57649448 64.3283815 30.56280807 62.85766602 30.55053711 C59.26556182 30.51758487 55.67401213 30.46586446 52.08227539 30.40405273 C52.09115784 31.68112091 52.10004028 32.95818909 52.10919189 34.2739563 C52.19028303 46.30984454 52.25024353 58.34567735 52.28952408 70.38177681 C52.31039753 76.56965649 52.3387114 82.75731561 52.3840332 88.94506836 C52.42749861 94.91674848 52.45141432 100.88821647 52.46178436 106.86004257 C52.4691744 109.13822647 52.48360536 111.41639877 52.50519562 113.69449234 C52.53423801 116.88585743 52.53823093 120.07634626 52.53637695 123.26782227 C52.55075806 124.20937668 52.56513916 125.15093109 52.57995605 126.12101746 C52.54475131 131.72253731 51.86191007 134.97971828 48.08227539 139.40405273 C42.85967682 143.46035672 37.42887397 143.17802817 31.08227539 142.40405273 C26.50041522 140.23369791 24.18224461 137.97829432 22.08227539 133.40405273 C21.65648999 130.06138615 21.70329292 126.74684791 21.74169922 123.38134766 C21.74126114 122.37599976 21.74082306 121.37065186 21.7403717 120.33483887 C21.74245867 117.01786761 21.76578596 113.70140425 21.78930664 110.38452148 C21.79490291 108.08238501 21.79917286 105.78024496 21.8021698 103.47810364 C21.81361609 97.42324942 21.84308171 91.36861159 21.87628174 85.31384277 C21.90698709 79.13365608 21.92067615 72.95343437 21.93579102 66.77319336 C21.96795138 54.65005149 22.01914536 42.52707012 22.08227539 30.40405273 C21.17461426 30.425 20.26695313 30.44594727 19.33178711 30.4675293 C15.94349897 30.53596206 12.55595189 30.58597569 9.16723633 30.6237793 C7.70455287 30.64381606 6.24194873 30.67105377 4.77954102 30.70581055 C2.66931529 30.75468498 0.56015403 30.77709933 -1.55053711 30.79467773 C-2.81784668 30.815625 -4.08515625 30.83657227 -5.39086914 30.8581543 C-10.48691616 30.2020109 -13.63777155 28.05202613 -16.76538086 24.02514648 C-18.85341142 19.27576171 -18.53693418 14.48157122 -17.91772461 9.40405273 C-13.99002837 1.11224957 -8.42465459 -0.04553537 0 0 Z " fill="#67a9e5" transform="translate(90.917724609375,248.595947265625)"/>
<path d="M0 0 C0.8103923 -0.00686325 1.62078461 -0.0137265 2.45573425 -0.02079773 C5.12700055 -0.03905643 7.797679 -0.03522959 10.46899414 -0.02954102 C12.33077688 -0.03410333 14.19255794 -0.03940905 16.05433655 -0.04542542 C19.95393724 -0.05435473 23.85333313 -0.0519355 27.75292969 -0.04199219 C32.74428763 -0.03050378 37.73493797 -0.05071288 42.72620296 -0.07990932 C46.57044447 -0.09827698 50.41451659 -0.09797772 54.25879097 -0.0922718 C56.09875036 -0.09211865 57.93872127 -0.09815788 59.77863884 -0.11056328 C62.35417629 -0.12548202 64.92840895 -0.11479036 67.50390625 -0.09765625 C68.25994141 -0.10732422 69.01597656 -0.11699219 69.79492188 -0.12695312 C74.94036853 -0.05546368 77.84897105 1.16788709 81.81665039 4.40405273 C85.87295437 9.62665131 85.59062583 15.05745416 84.81665039 21.40405273 C82.64077757 25.99756202 80.35874331 28.22894317 75.81665039 30.40405273 C73.01313988 30.69389404 70.43409215 30.82473764 67.63330078 30.80810547 C66.82290848 30.81496872 66.01251617 30.82183197 65.17756653 30.8289032 C62.50630023 30.8471619 59.83562178 30.84333506 57.16430664 30.83764648 C55.3025239 30.84220879 53.44074284 30.84751452 51.57896423 30.85353088 C47.67936354 30.8624602 43.77996765 30.86004097 39.88037109 30.85009766 C34.88901315 30.83860925 29.89836281 30.85881835 24.90709782 30.88801479 C21.06285631 30.90638244 17.21878419 30.90608319 13.37450981 30.90037727 C11.53455043 30.90022412 9.69457951 30.90626334 7.85466194 30.91866875 C5.27912449 30.93358749 2.70489183 30.92289583 0.12939453 30.90576172 C-0.62664062 30.91542969 -1.38267578 30.92509766 -2.16162109 30.93505859 C-7.30706775 30.86356915 -10.21567027 29.64021838 -14.18334961 26.40405273 C-18.23965359 21.18145416 -17.95732505 15.75065131 -17.18334961 9.40405273 C-13.47214739 1.56929249 -8.23234166 -0.04888681 0 0 Z " fill="#67a9e5" transform="translate(154.183349609375,128.595947265625)"/>
<path d="M0 0 C0.8103923 -0.00686325 1.62078461 -0.0137265 2.45573425 -0.02079773 C5.12700055 -0.03905643 7.797679 -0.03522959 10.46899414 -0.02954102 C12.33077688 -0.03410333 14.19255794 -0.03940905 16.05433655 -0.04542542 C19.95393724 -0.05435473 23.85333313 -0.0519355 27.75292969 -0.04199219 C32.74428763 -0.03050378 37.73493797 -0.05071288 42.72620296 -0.07990932 C46.57044447 -0.09827698 50.41451659 -0.09797772 54.25879097 -0.0922718 C56.09875036 -0.09211865 57.93872127 -0.09815788 59.77863884 -0.11056328 C62.35417629 -0.12548202 64.92840895 -0.11479036 67.50390625 -0.09765625 C68.25994141 -0.10732422 69.01597656 -0.11699219 69.79492188 -0.12695312 C74.94036853 -0.05546368 77.84897105 1.16788709 81.81665039 4.40405273 C85.87295437 9.62665131 85.59062583 15.05745416 84.81665039 21.40405273 C82.64077757 25.99756202 80.35874331 28.22894317 75.81665039 30.40405273 C73.01313988 30.69389404 70.43409215 30.82473764 67.63330078 30.80810547 C66.82290848 30.81496872 66.01251617 30.82183197 65.17756653 30.8289032 C62.50630023 30.8471619 59.83562178 30.84333506 57.16430664 30.83764648 C55.3025239 30.84220879 53.44074284 30.84751452 51.57896423 30.85353088 C47.67936354 30.8624602 43.77996765 30.86004097 39.88037109 30.85009766 C34.88901315 30.83860925 29.89836281 30.85881835 24.90709782 30.88801479 C21.06285631 30.90638244 17.21878419 30.90608319 13.37450981 30.90037727 C11.53455043 30.90022412 9.69457951 30.90626334 7.85466194 30.91866875 C5.27912449 30.93358749 2.70489183 30.92289583 0.12939453 30.90576172 C-0.62664062 30.91542969 -1.38267578 30.92509766 -2.16162109 30.93505859 C-7.30706775 30.86356915 -10.21567027 29.64021838 -14.18334961 26.40405273 C-18.23965359 21.18145416 -17.95732505 15.75065131 -17.18334961 9.40405273 C-13.47214739 1.56929249 -8.23234166 -0.04888681 0 0 Z " fill="#67a9e5" transform="translate(154.183349609375,64.595947265625)"/>
</svg>
